<?xml version="1.0" standalone="no"?><!DOCTYPE svg PUBLIC "-//W3C//DTD SVG 1.1//EN" "http://www.w3.org/Graphics/SVG/1.1/DTD/svg11.dtd"><svg class="icon" height="512" viewBox="0 0 1024 1024" version="1.1" xmlns="http://www.w3.org/2000/svg"><path d="M601.93 621.955H265.002V573.47h344.944v39.052a48.053 48.053 0 0 0-8.016 9.433zM265.002 500.764h344.944v-48.532H265.002v48.532z m0 242.398h317.051v-48.486H265.002v48.486z m215.004-539.231c0-31.218-21.645-56.56-48.278-56.56-26.645 0-48.283 25.342-48.283 56.56v24.242H325.93v89.399h211.559v-89.399h-57.483v-24.242z m224.205 110.986c0-46.057-11.768-59.802-51.062-59.802H578.92v110.973H284.557V255.115H221.8c-39.32 0-51.085 13.745-51.085 59.802v481.581c0 46.022 11.765 59.772 51.085 59.772h370.953v48.519H221.801c-62.134 0-92.468-35.558-92.468-108.291V314.917c0-72.775 30.334-108.297 92.468-108.297h62.755v-26.939h59.887c9.387-46.273 44.966-80.834 87.285-80.834 42.311 0 77.889 34.561 87.247 80.834h59.949v26.939h74.225c62.114 0 92.469 35.521 92.469 108.297v286.606h-41.407V314.917z m14.727 472.768c0-22.603 18.216-40.913 40.681-40.913 22.478 0 40.684 18.31 40.684 40.913 0 22.598-18.206 40.907-40.684 40.907-22.464 0-40.681-18.309-40.681-40.907z m176.86-25.729l-39.032-6.522a104.753 104.753 0 0 0-5.767-14.055l23.016-32.333-36.147-36.338-32.147 23.074c-4.482-2.29-9.201-4.236-14.035-5.844l-6.522-39.193h-51.111l-6.49 39.175c-4.838 1.582-9.526 3.572-14.035 5.857l-32.151-23.106-36.115 36.344 22.988 32.364a102.69 102.69 0 0 0-5.767 14.055l-39.06 6.559v51.409l39.147 6.528a101 101 0 0 0 5.774 13.929l-23.082 32.49 36.115 36.343 32.399-23.256c4.384 2.229 9.012 4.143 13.756 5.75l6.56 39.433H785.2l6.55-39.433c4.744-1.606 9.344-3.496 13.759-5.75l32.36 23.256 36.147-36.343-23.076-32.49c2.253-4.444 4.178-9.115 5.771-13.904l39.088-6.584v-51.415z" /></svg>